<svg width="239" height="280" viewBox="0 0 239 280" fill="none" xmlns="http://www.w3.org/2000/svg">
<g clip-path="url(#clip0_68_1472)">
<path d="M163.678 160.834C196.07 103.414 175.15 36.1639 175.15 36.1639C106.668 -4.39945 61.5395 36.1639 61.5395 36.1639C61.5395 36.1639 45.3625 61.1413 45.3625 81.213C45.3625 92.0739 52.2774 95.0099 45.3357 105.239C40.304 112.654 34.6117 119.034 31.8601 121.984C30.811 123.109 30.5384 124.862 31.2022 126.302C32.9209 130.033 36.9878 136.501 44.5288 136.501C44.5288 136.501 46.0006 141.64 42.9189 144.61C41.9139 145.578 41.653 147.201 42.2882 148.499C43.1071 150.171 44.3431 152.088 45.8672 152.585C45.8672 152.585 42.2978 158.397 47.5964 162.296C47.5964 162.296 40.9036 185.303 56.2413 185.492C61.8337 185.561 69.4541 183.975 77.3479 181.393C82.1606 189.987 88.3188 204.877 91.1699 216.656C92.0587 220.329 94.4346 230.226 92.9631 238.864C90.4863 253.403 83.1031 267.785 83.1031 267.785L188.522 235.479C161.151 201.231 163.678 160.834 163.678 160.834Z" fill="#FFD9BE"/>
<path opacity="0.4" d="M47.1996 152.661C47.3338 152.51 47.4839 152.354 47.5227 152.146C47.6113 151.672 47.1099 151.355 46.7049 151.175C44.8817 150.363 43.2481 149.045 41.9688 147.392C42.0122 147.771 42.1164 148.147 42.2883 148.498C43.1072 150.17 44.3432 152.087 45.8672 152.584C45.8672 152.584 43.0108 157.242 46.2147 161.016C45.9089 159.963 45.6875 158.886 45.6409 157.783C45.5629 155.93 46.0262 153.981 47.1996 152.661Z" fill="#FFD9BE"/>
<path opacity="0.4" d="M42.8848 131.667C41.6343 130.949 40.1657 130.942 38.7737 130.704C35.9144 130.215 33.2317 128.63 31.2168 126.332C32.9432 130.067 37.008 136.5 44.5293 136.5C44.5293 136.5 44.7065 137.12 44.8089 138.053C44.9223 137.8 45.0159 137.536 45.084 137.263C45.6148 135.141 44.6468 132.68 42.8848 131.667Z" fill="#FFD9BE"/>
<path opacity="0.4" d="M114.314 170.387C102.641 175.99 89.7679 177.668 77.6465 181.938C80.7462 187.669 83.9999 195.385 87.2423 203.777C105.434 197.486 107.644 179.465 114.314 170.387Z" fill="#FFD9BE"/>
<path opacity="0.4" d="M61.541 36.1636C61.541 36.1636 49.0732 55.416 46.0293 73.6982C48.349 77.1139 51.5896 79.769 55.2649 81.0729C59.0907 82.43 63.2007 82.385 67.2055 82.0446C69.4295 81.8554 71.7484 81.5402 73.5935 80.1501C73.733 80.0452 73.875 79.9261 73.941 79.7542C74.1013 79.3366 73.7468 78.9136 73.4378 78.6168C71.5751 76.8268 70.1015 74.5419 69.1759 72.0086C71.9497 74.4894 75.6996 74.9966 79.0744 76.2644C81.5148 77.1809 83.807 78.5247 86.0281 79.9723C92.0514 83.8984 97.8663 88.9399 100.733 96.0064C101.478 97.8409 102.001 99.7621 102.404 101.722C108.242 83.0148 118.677 66.085 132.322 53.3174C142.656 43.648 154.803 36.3935 167.738 32.0378C103.431 -1.48575 61.541 36.1636 61.541 36.1636Z" fill="#FFD9BE"/>
<path opacity="0.4" d="M61.7028 183.117C58.4572 182.82 55.1728 182.412 52.1437 181.086C49.9818 180.14 47.9464 178.663 46.4707 176.699C47.2924 181.38 49.8582 185.412 56.242 185.491C60.4958 185.543 65.9237 184.636 71.7516 183.063C68.4457 183.617 65.0472 183.423 61.7028 183.117Z" fill="#FFD9BE"/>
<path d="M50.0164 80.9662C53.3157 79.7062 56.7142 79.5308 59.9452 80.1852C61.3871 80.5444 62.8229 81.0712 64.2325 81.5318C68.7098 83.1466 73.1532 85.2303 76.9902 88.5696L76.8582 88.8336C72.7397 86.3646 68.2031 85.0067 63.6937 83.9221C62.0559 83.5732 60.2126 83.4134 58.5493 83.1772C56.8388 82.8885 55.1463 82.5333 53.4481 82.1647C52.311 81.8737 51.1599 81.6939 50.002 81.2709L50.0164 80.9662Z" fill="#A43E29"/>
<path d="M44.8945 152.368C53.1192 152.9 61.2594 152.76 69.3541 151.053C61.7089 154.431 52.8243 154.596 44.8945 152.368Z" fill="#A43E29"/>
<path d="M71.75 183.063C81.9154 180.292 96.3914 176.15 106.319 173.105C108.394 172.411 110.566 171.826 112.546 170.882C118.473 167.611 121.573 160.409 123.909 153.843C124.952 150.796 125.792 147.658 126.455 144.47C126.014 147.709 125.275 150.895 124.378 154.025C122.258 160.933 119.164 168.427 112.994 171.927C110.927 172.964 108.762 173.536 106.617 174.276C95.2205 177.768 83.4052 180.922 71.75 183.063Z" fill="#A43E29"/>
<path d="M38.748 131.883C40.9092 132.001 43.0191 132.398 45.0962 133.038C45.7763 133.249 46.532 133.507 47.0274 134.097C46.4024 133.712 45.687 133.631 44.9899 133.504C42.8817 133.101 40.7813 132.676 38.748 131.883Z" fill="#A43E29"/>
<path d="M72.7571 102.289C71.4149 103.034 64.7775 104.142 63.3435 104.218C59.7692 104.409 56.1066 104.583 52.7084 102.95C52.7084 102.95 51.8479 105.158 49.1426 107.12C49.1426 107.12 58.1741 108.709 64.7998 106.781C71.4255 104.853 72.7571 102.289 72.7571 102.289Z" fill="#A43E29"/>
<path d="M49.1426 107.12C53.2964 103.87 53.9161 97.5579 53.3547 91.3217C53.2611 90.4452 53.164 89.5639 53.1022 88.6572C53.3434 89.4852 53.5499 90.3387 53.7593 91.1968C54.407 94.5017 54.5705 98.1442 53.6456 101.4C52.849 104.149 51.1565 106.529 49.1426 107.12Z" fill="#A43E29"/>
<path opacity="0.4" d="M52.7538 86.4229C52.7538 86.4229 53.8848 95.0098 59.9183 99.5829C63.0085 101.925 66.9974 102.667 73.1927 102.348C73.1927 102.348 55.5092 109.298 49.8613 107.217C49.8613 107.217 55.779 101.99 52.9854 87.3973L52.7538 86.4229Z" fill="#FFD9BE"/>
<path d="M196.465 77.5426C193.298 74.6035 190.939 71.2066 190.233 66.6938C188.968 58.6078 186.636 50.6018 182.422 43.8557C178.208 37.11 171.966 31.7023 164.739 29.9417C163.183 21.0971 155.503 14.2872 155.362 5.27692C153.637 10.4775 153.345 15.5723 154.446 20.9773C149.476 12.0167 139.371 8.48429 129.983 6.97754C120.596 5.47119 110.691 5.16608 102.428 0C103.769 3.44549 106.009 6.44487 108.794 8.57554C99.5088 5.8041 85.7133 5.75397 76.4134 8.4694C69.4773 10.4939 62.9752 13.9868 56.2863 16.8581C49.5974 19.7294 42.5052 22.0132 35.3516 21.4387C41.4935 26.5934 49.5674 27.6904 57.2246 28.6109C49.6098 29.6135 43.4004 36.7998 38.7766 42.3627C36.4975 45.1047 28.334 54.9826 25.0234 55.6339C30.1579 59.6129 36.7062 60.5861 42.7955 56.7286C41.6369 62.6459 45.3638 68.707 50.2232 71.4666C55.0822 74.2263 60.7826 74.3775 66.2356 74.0885C61.9465 71.7208 58.5181 67.4983 56.8428 62.5202C58.8366 66.9742 63.4399 69.2815 67.8798 69.974C72.3196 70.6665 76.8459 70.0942 81.3116 70.5372C85.7772 70.9806 90.4833 72.7016 93.0604 76.771C104.563 90.8353 95.5927 118.592 95.5927 118.592L112.272 121.476C112.272 121.476 117.953 98.5429 127.535 93.4039C133.801 90.0434 146.716 96.7256 146.935 104.441C147.164 112.466 139.162 124.817 139.162 124.817C139.162 124.817 143.278 137.021 149.74 146.592C155.412 154.992 163.523 160.918 163.677 160.834C169.34 157.758 177.293 140.571 181.13 128.38C182.581 123.772 184.048 119.057 184.057 114.176C184.229 117.596 184.401 121.015 184.573 124.434C186.967 116.489 189.368 108.51 190.725 100.269C192.083 92.0284 192.267 84.1312 190.44 76.0029C192.42 76.6472 194.413 77.2942 196.465 77.5426Z" fill="#A43E29"/>
<path opacity="0.6" d="M54.5371 37.8118C49.9716 44.4317 42.1107 53.2932 43.0683 62.1578L42.9589 62.1981C41.058 54.9108 45.6942 47.9779 49.7982 42.773C51.2608 40.9851 52.8075 39.2833 54.463 37.7139L54.5371 37.8118Z" fill="#A43E29"/>
<path opacity="0.6" d="M59.4768 67.9366C55.0553 64.5996 54.4253 57.1493 58.2073 52.9604C58.952 52.0537 59.9595 51.2359 60.9154 50.6602L60.9927 50.7549C60.2586 51.5845 59.4301 52.4924 58.8369 53.4641C56.8682 56.3393 56.2608 60.2905 57.406 63.698C57.8986 65.2027 58.6247 66.63 59.5608 67.8492L59.4768 67.9366Z" fill="#A43E29"/>
<path opacity="0.6" d="M68.0745 27.0046C66.1415 27.2604 63.5178 27.591 61.6519 28.0288C50.836 29.8552 42.5704 38.354 35.7142 47.2534C32.8238 50.9151 29.264 54.1804 25.0403 55.695L25 55.5752C26.9895 54.6422 28.8032 53.2741 30.4784 51.7635C32.1434 50.2273 33.6562 48.4966 35.003 46.6134C37.7319 42.8691 40.6614 39.2779 43.9798 36.1504C47.2907 33.0308 51.0691 30.4509 55.2134 28.9426C59.3538 27.4038 63.7399 26.9651 68.0721 26.877L68.0745 27.0046Z" fill="#A43E29"/>
<path opacity="0.6" d="M44.558 65.708C49.9114 72.6111 58.5827 73.286 66.2265 74.0262L66.2385 74.1535C60.2668 74.7958 53.7414 74.4492 48.6098 70.6336C46.9419 69.3536 45.4062 67.7768 44.4531 65.7609L44.558 65.708Z" fill="#A43E29"/>
<g opacity="0.6">
<path d="M96.4369 6.75488C101.223 7.57973 109.831 8.63371 114.541 9.8937C119.232 11.2207 123.891 12.754 128.348 14.8757L128.302 14.9928C125.675 14.2702 113.092 10.8165 110.763 10.1632C108.427 9.49067 106.091 8.82445 103.767 8.08146C102.609 7.66237 97.5796 7.33102 96.4199 6.88139L96.4369 6.75488Z" fill="#A43E29"/>
</g>
<path opacity="0.6" d="M159.756 81.2171C159.989 88.8409 162.94 96.2908 167.869 101.57L167.112 102.013C166.37 97.8488 166.058 93.5906 166.113 89.3406L166.139 87.3243C168.448 91.3041 170.832 95.254 172.848 99.4593C174.569 103.069 176.061 106.868 176.917 110.884L175.902 110.847C177.378 105.83 178.427 100.661 179.062 95.4283C179.695 90.1784 179.904 84.8698 179.696 79.5713C180.756 90.1737 179.761 101.017 176.908 111.202L176.36 113.173L175.893 111.165C174.079 103.343 170.097 96.449 166.202 89.6869L167.218 89.3696C167.096 93.5373 167.381 97.7164 167.996 101.836L168.228 103.387C162.752 97.7478 159.482 89.5028 159.756 81.2171Z" fill="#A43E29"/>
<path opacity="0.6" d="M162.402 35.4512C164.379 42.4385 168.266 48.7988 173.471 53.3073C175.199 54.796 177.05 56.1112 179.026 57.155L178.503 58.2172C177.423 57.2302 176.737 56.0669 175.875 54.8978C173.575 51.5087 171.392 48.0217 169.467 44.3549C172.425 48.4788 175.319 52.6626 178.488 56.5816C178.689 56.8146 178.94 57.0845 179.085 57.1906L178.562 58.2524C170.328 54.0784 164.013 45.3623 162.402 35.4512Z" fill="#A43E29"/>
<path opacity="0.4" d="M48.206 49.3341C47.4415 50.8926 46.7236 52.5129 46.2695 54.2715C45.8154 56.0301 45.6367 57.9489 45.9658 59.7172C46.4602 62.3739 48.0002 64.3424 49.473 66.1637C48.7092 65.4641 48.2244 64.3076 47.9673 63.091C47.7102 61.8745 47.659 60.5871 47.6096 59.3126C48.4875 62.4898 49.9967 65.3083 51.9386 67.3958C50.5857 64.5829 49.7181 61.1198 50.2428 57.7413C50.8146 54.0623 52.9036 51.1291 55.0432 48.6945C56.0864 47.5078 57.1655 46.381 58.2772 45.3196C54.8914 47.0241 51.9873 50.1891 49.2004 53.3738C52.327 47.76 56.1807 42.8881 60.5153 39.0693C56.757 41.475 52.8772 44.002 50.1214 48.2774C50.8273 47.1823 51.4385 45.9584 52.1328 44.8445C52.678 43.9691 54.1936 41.5415 54.1936 41.5415C54.1936 41.5415 49.52 46.6551 48.206 49.3341Z" fill="white"/>
<path opacity="0.4" d="M45.0976 38.5083C43.1251 40.6981 41.4223 43.1637 39.6235 45.5301C37.5418 48.2683 35.326 50.8803 32.9883 53.3513C37.3395 51.3679 41.208 48.0979 44.0859 43.9701C42.3761 45.4314 40.7044 46.948 39.0737 48.5174C41.2849 46.3891 42.9556 43.2643 44.7858 40.7444C45.7421 39.4276 46.7273 38.1339 47.7927 36.9236C48.708 35.8838 49.9662 35.0139 50.7692 33.9062C48.6247 34.9316 46.734 36.6914 45.0976 38.5083Z" fill="white"/>
<path opacity="0.4" d="M74.6151 13.1158C69.0354 15.0969 63.5658 17.5123 57.8509 18.9411C63.1753 18.0951 68.4199 16.6295 73.4699 14.576C68.3803 18.2012 62.3751 19.8302 56.4941 21.4011C61.4149 21.313 66.3728 21.2202 71.1856 20.0793C76.1328 18.9062 80.8305 16.6475 85.7823 15.4979C88.3884 14.8932 91.0442 14.6006 93.6937 14.3092C87.4696 14.3284 81.3662 16.069 75.3401 17.7978C81.4167 13.9219 88.3577 11.7278 95.3637 11.4681C89.0501 11.5511 82.7465 12.5166 76.6491 14.3347C80.8997 12.3215 86.3155 9.89867 91.0001 9.88379C85.3473 9.94959 79.9893 11.2072 74.6151 13.1158Z" fill="white"/>
<path opacity="0.4" d="M170.541 83.8195C170.417 81.3884 170.294 78.9577 170.17 76.5267C171.894 82.8513 173.617 89.1759 175.341 95.5002C174.577 86.0892 173.068 76.753 170.836 67.6339C171.061 70.164 171.286 72.6946 171.51 75.2248C169.857 69.2746 167.757 63.4775 165.238 57.9131C166.297 62.3405 167.355 66.7679 168.413 71.1953C167.988 69.2295 165.49 64.5229 164.527 62.7952C166.342 68.841 167.936 73.3146 168.353 74.8456C168.723 76.2039 170.471 82.4271 170.541 83.8195Z" fill="white"/>
<path opacity="0.3" d="M33.3505 121.815C33.0892 122.085 32.817 122.358 32.6598 122.714C32.503 123.069 32.4896 123.535 32.7273 123.831C33.0804 124.27 33.7224 124.108 34.2174 123.895C35.1511 123.494 36.0802 123.026 36.8362 122.297C37.6353 121.526 39.2085 118.725 37.3546 118.256C35.8711 117.881 34.2754 120.859 33.3505 121.815Z" fill="white"/>
<path d="M120.158 101.486C120.158 101.486 128.367 84.3233 143.334 93.5623C159.54 103.566 137.94 142.207 120.158 132.529V101.486Z" fill="#FFD9BE"/>
<path opacity="0.4" d="M121.744 116.587C121.744 116.587 120.502 104.242 133.17 97.9147C145.838 91.5873 145.933 114.136 135.041 122.336C124.148 130.535 120.868 129.197 121.744 116.587Z" fill="#FFD9BE"/>
<path d="M124.006 106.071C124.987 103.919 126.256 101.902 127.907 100.216C131.48 96.2383 138.42 94.8275 141.905 99.7237C142.962 101.192 143.587 103.152 143.233 105.014C142.922 102.607 141.527 100.75 139.863 99.6411C136.319 97.3694 131.951 98.8668 128.785 101.41C127.103 102.744 125.581 104.404 124.006 106.071Z" fill="#A43E29"/>
<path d="M135.829 97.3301C137.733 106.949 135.611 117.799 125.244 118.592C132.218 117.485 135.46 111.88 135.089 104.371C135.002 102.175 134.664 99.9229 134.111 97.8749L135.829 97.3301Z" fill="#A43E29"/>
<g opacity="0.6">
<path d="M113.727 28.5038C110.394 36.0782 111.426 45.5679 116.31 51.9873C119.475 56.3501 123.623 59.6785 126.81 64.0628C130.723 69.4012 133.08 77.3086 131.502 84.1244C131.129 85.5258 130.471 86.8923 129.47 87.9279L129.096 87.0086C132.874 86.5723 136.521 84.6731 139.198 81.6914C141.993 78.6998 143.264 74.5752 143.662 70.3518C144.469 61.8107 143.425 53.0691 141.944 44.6687L141.125 40.273L142.833 44.3491C144.097 47.3046 145.993 50.0255 148.166 52.256C150.364 54.5113 152.965 56.2777 155.802 57.352L155.429 58.0735C150.471 53.0135 151.757 44.8414 150.59 38.2371C149.419 31.4624 144.542 25.719 138.553 23.8477C144.673 25.5138 149.722 31.2694 151.058 38.1259C151.759 41.5545 151.713 45.0666 152.174 48.4526C152.631 51.7477 153.618 55.2014 155.934 57.4362L157.379 58.8227L155.561 58.1577C151.113 56.5648 147.224 53.3092 144.425 49.1799C143.488 47.7985 142.653 46.3669 141.972 44.7627L142.861 44.4435C144.534 53.8705 146.47 67.8835 143.304 76.953C140.948 83.2091 135.188 87.4187 129.191 88.0677L127.767 88.2255L128.817 87.1485C131.494 84.2548 131.287 79.5611 130.729 75.749C130.063 71.6937 128.523 67.8318 126.207 64.5935C123.104 60.203 118.987 56.7927 115.874 52.3684C111.03 45.7912 110.137 35.9748 113.727 28.5038Z" fill="#A43E29"/>
</g>
<path d="M96.4243 28.4316C88.8032 31.4855 82.1111 37.3201 77.6352 44.8127C75.4579 48.458 73.7622 52.6507 73.8363 57.0225C73.9144 61.6238 75.9907 66.0058 78.9506 69.2312C81.9105 72.4562 85.695 74.6178 89.609 76.146C88.3007 75.1634 87.6382 73.3472 87.6283 71.5945C87.6184 69.8418 88.1817 68.1423 88.9063 66.5847C90.1133 63.9899 91.7924 61.6669 93.8133 59.7959L96.4243 28.4316Z" fill="#A43E29"/>
<g opacity="0.6">
<path d="M96.4416 28.4868C89.5133 31.7894 83.3771 37.1497 79.111 44.047C75.5677 49.5777 73.2452 56.3531 76.0151 62.8329C78.2914 68.5046 83.0536 72.2148 88.1065 74.6471C88.6803 74.9232 88.1351 75.6776 87.7957 74.9988C86.6212 72.6496 87.0033 69.4387 88.1549 67.1659C89.5045 64.2597 91.4188 61.6876 93.7784 59.7504L93.8462 59.8405C90.8672 62.6785 87.5567 67.4788 87.7152 72.0217C87.8166 73.5915 88.466 75.1794 89.651 76.0751L90.1341 76.4405L89.5829 76.2251C83.6327 73.9495 77.7271 69.8966 75.0649 63.3095C72.0919 56.4581 74.5567 49.1931 78.3768 43.4606C81.3632 38.8785 85.1858 34.9865 89.5299 32.0341C91.7084 30.5713 94.0139 29.3434 96.4056 28.376L96.4416 28.4868Z" fill="#A43E29"/>
</g>
<path opacity="0.4" d="M84.7246 43.4197C86.1707 41.0074 88.1859 39.0189 90.5141 37.7065C87.8476 40.3197 86.2074 44.1792 86.0877 48.1236C86.4796 46.499 87.4864 45.1407 88.5984 43.997C91.5622 40.9479 95.354 39.1102 99.0986 37.4209C96.2255 37.5686 93.3853 38.4526 90.8626 39.984C93.3214 38.1913 95.8992 36.5992 98.5682 35.2249C95.3717 35.4579 92.0601 35.7262 89.2467 37.4249C91.7659 35.255 94.5192 33.4201 97.4293 31.9717C94.5528 32.833 91.7084 33.3163 89.2856 35.3952C88.1333 36.3842 87.1336 37.5944 86.3511 38.9578C85.9605 39.6382 85.6233 40.3565 85.3496 41.1038C85.118 41.7363 85.0618 42.8957 84.7246 43.4197Z" fill="white"/>
<path opacity="0.4" d="M124.683 54.1541C123.312 52.1974 122.314 49.9206 121.774 47.5162C121.956 49.3268 123.216 50.736 124.37 52.0332C127.79 55.8806 130.984 60.308 132.013 65.59C131.687 60.731 130.421 55.9523 128.325 51.6702C126.384 47.7049 123.701 44.044 122.906 39.6198C122.709 44.044 124.083 48.5313 126.668 51.9075C122.427 47.0743 120.348 40.9369 119.782 34.3193C118.513 37.6148 118.072 41.2859 118.902 44.7533C119.357 46.6564 120.109 48.4734 121.113 50.0968C122.11 51.7089 123.652 52.6834 124.683 54.1541Z" fill="white"/>
<path d="M41.4992 545.115C43.2196 512.753 34.7612 480.812 33.2301 448.439C31.659 415.222 37.3945 382.173 43.1035 349.519C44.7215 340.264 46.3519 330.96 49.3072 322.12C52.7809 311.73 58.0135 302.193 63.2341 292.744C75.5747 270.407 75.8427 251.834 110.168 235.302C119.741 230.691 129.785 227.494 139.963 224.933C150.949 222.168 162.423 219.402 173.355 222.417C191.028 227.29 202.684 245.855 210.33 264.186C220.41 288.35 226.445 314.58 228.037 341.147C230.669 385.065 226.833 426.532 220.354 469.957C216.392 496.514 210.997 523.378 198.595 546.516C199.891 544.551 41.4992 545.115 41.4992 545.115Z" fill="#E77700"/>
<path d="M190.062 471.746C200.743 408.654 210.493 342.419 199.885 278.775C197.62 268.479 194.035 258.568 189.567 249.201C187.666 245.216 185.575 241.28 182.738 238.05C171.966 225.94 154.941 226.529 141.023 230.372C130.922 233.162 121.357 247.11 119.097 254.576C112.797 275.389 109.093 297.051 105.957 318.729C102.347 343.682 99.4577 368.853 99.5428 394.125C99.8419 422.174 102.821 450.106 104.629 478.072L190.062 471.746Z" fill="#E77700"/>
<path d="M190.06 471.747C200.409 413.308 211.313 333.406 198.856 275.416C196.796 266.295 193.888 257.346 189.564 249.201C194.162 257.17 197.224 266.125 199.514 275.222C212.976 332.563 202.072 414.147 190.06 471.747Z" fill="#E77700"/>
<path d="M146.227 229.131C141.184 228.927 136.476 231.916 132.75 235.45C130.658 237.399 128.729 239.896 127.048 242.287C114.627 261.12 109.824 289.009 106.893 311.848C103.348 344.908 101.579 378.315 101.141 411.591C101.137 433.779 101.299 456.141 104.627 478.072C100.718 456.221 100.31 433.799 100.07 411.587C100.071 389.377 101.075 367.023 102.588 344.886C104.874 313.05 108.88 267.868 126.619 241.92C131.398 235.348 138.151 228.733 146.227 229.131Z" fill="#E77700" stroke="#E77700" stroke-miterlimit="10"/>
<path opacity="0.3" d="M136.655 255.591C134.658 259.255 133.135 263.26 130.738 266.618C130.358 267.149 129.935 267.682 129.368 267.937C128.199 268.462 126.838 267.583 126.193 266.381C124.921 264.007 125.735 260.96 126.8 258.463C128.101 255.413 129.731 252.549 131.431 249.751C134.226 245.151 137.303 240.614 141.429 237.48C144.75 234.958 158.136 230.899 151.279 239.097C146.389 244.944 140.523 248.494 136.655 255.591Z" fill="white"/>
<path opacity="0.3" d="M49.3067 322.12C52.7804 311.729 58.013 302.192 63.2336 292.743C75.5742 270.407 71.3583 256.215 110.167 235.301C119.554 230.242 129.785 227.493 139.962 224.932C142.876 224.198 145.826 223.468 148.789 222.843C129.032 235.536 111.589 252.605 94.9198 270.065C85.1898 280.256 75.5792 290.71 67.6939 302.704C59.3051 315.465 53.0191 329.736 46.1565 343.573C45.1405 345.621 44.1094 347.66 43.0723 349.695C43.0825 349.636 43.0927 349.578 43.103 349.519C44.721 340.263 46.351 330.959 49.3067 322.12Z" fill="#E77700"/>
</g>
<defs>
<clipPath id="clip0_68_1472">
<rect width="239" height="280" fill="white"/>
</clipPath>
</defs>
</svg>
